<svg xmlns="http://www.w3.org/2000/svg" xmlns:xlink="http://www.w3.org/1999/xlink" xmlns:lucid="lucid" width="1400.54" height="1834.49"><g transform="translate(-120.46206590349732 261)" lucid:page-tab-id="0_0"><path d="M0-500h2000v2500H0z" fill="#fff"/><path d="M362.46 130h100.9M342.46 130h20m0 10v-20" stroke="#3a414a" fill="none"/><path d="M463.85 130l.05.47h-.56v-.94h.56z" stroke="#3a414a" stroke-width=".05" fill="#3a414a"/><path d="M559.57 130H699" stroke="#3a414a" fill="none"/><path d="M559.58 130.47h-.56l.05-.47-.05-.47h.56z" stroke="#3a414a" stroke-width=".05" fill="#3a414a"/><path d="M719 130h-20m0-10v20" stroke="#3a414a" fill="none"/><path d="M506.32 103.1a10 10 0 0 1 10.3 0l39.7 23.8a3.6 3.6 0 0 1 0 6.2l-39.7 23.8a10 10 0 0 1-10.3 0l-39.7-23.8a3.6 3.6 0 0 1 0-6.2z" stroke="#000" stroke-width="2" fill="#fff"/><use xlink:href="#a" transform="matrix(1,0,0,1,466.4620659034973,105) translate(37.01117283950617 30.27777777777778)"/><path d="M1121.4 139.92a10 10 0 0 1 10.28 0l39.7 23.82a3.6 3.6 0 0 1 0 6.18l-39.7 23.82a10 10 0 0 1-10.3 0l-39.7-23.82a3.6 3.6 0 0 1 0-6.18z" stroke="#000" stroke-width="2" fill="#fff"/><use xlink:href="#a" transform="matrix(1,0,0,1,1081.538034096502,141.8300075226625) translate(37.01117283950617 30.27777777777778)"/><path d="M951.33 167h48.55a.1.1 0 0 0 .1-.1.1.1 0 0 1 .07-.07h78.38" stroke="#000" fill="none"/><path d="M951.5 167c0 8.28-6.72 15-15 15-8.28 0-15-6.72-15-15 0-8.28 6.72-15 15-15 8.28 0 15 6.72 15 15z" stroke="#000" fill="#fff"/><path d="M1078.93 166.83l.05.47h-.56v-.95h.56z" stroke="#000" stroke-width=".05"/><path d="M820 261.66V250M819 280.66l1.05-19.97m10 .5l-19.98-1.04" stroke="#000" fill="none"/><path d="M820.48 250h-.96v-.5h.96z" stroke="#000" stroke-width=".05"/><path d="M820 379v-9.33a.5.5 0 0 0-.5-.5.5.5 0 0 1-.5-.5v-28.83M820 399v-20m10 0h-20" stroke="#000" fill="none"/><path d="M819 339.34l.48-.03v.55h-.96v-.54z" stroke="#000" stroke-width=".05"/><path d="M813.86 283.1a10 10 0 0 1 10.28 0l39.72 23.8a3.6 3.6 0 0 1 0 6.2l-39.72 23.8a10 10 0 0 1-10.28 0l-39.72-23.8a3.6 3.6 0 0 1 0-6.2z" stroke="#000" stroke-width="2" fill="#fff"/><use xlink:href="#a" transform="matrix(1,0,0,1,774.0000499999996,285) translate(37.01117283950617 30.27777777777778)"/><path d="M141.46 40.5a6 6 0 0 1 6-6h188a6 6 0 0 1 6 6v176a6 6 0 0 1-6 6h-188a6 6 0 0 1-6-6z" fill="#fff"/><path d="M141.46 40.5a6 6 0 0 1 6-6h188a6 6 0 0 1 6 6v176a6 6 0 0 1-6 6h-188a6 6 0 0 1-6-6zM141.46 74.5h200" stroke="#000" stroke-width="2" fill="none"/><use xlink:href="#b" transform="matrix(1,0,0,1,151.46206590349732,34.50000002849106) translate(44.382716049382715 24.444444444444443)"/><use xlink:href="#c" transform="matrix(1,0,0,1,146.46206590349732,77.00000002849106) translate(0 20.444444444444443)"/><use xlink:href="#d" transform="matrix(1,0,0,1,146.46206590349732,77.00000002849106) translate(103.58024691358024 20.444444444444443)"/><use xlink:href="#e" transform="matrix(1,0,0,1,146.46206590349732,114.00000002849106) translate(0 20.444444444444443)"/><use xlink:href="#f" transform="matrix(1,0,0,1,146.46206590349732,114.00000002849106) translate(29.62962962962963 20.444444444444443)"/><use xlink:href="#g" transform="matrix(1,0,0,1,146.46206590349732,151.00000002849106) translate(0 20.53333333333333)"/><use xlink:href="#h" transform="matrix(1,0,0,1,146.46206590349732,151.00000002849106) translate(30.22222222222222 20.53333333333333)"/><use xlink:href="#g" transform="matrix(1,0,0,1,146.46206590349732,188.00000002849106) translate(0 20.53333333333333)"/><use xlink:href="#i" transform="matrix(1,0,0,1,146.46206590349732,188.00000002849106) translate(30.22222222222222 20.53333333333333)"/><path d="M451.5 1015h100.9M431.5 1015h20m0 10v-20" stroke="#3a414a" fill="none"/><path d="M552.9 1015l.04.48h-.56v-.96h.56z" stroke="#3a414a" stroke-width=".05" fill="#3a414a"/><path d="M648.6 1015h80.9" stroke="#3a414a" fill="none"/><path d="M648.62 1015.48h-.56l.05-.48-.04-.48h.56z" stroke="#3a414a" stroke-width=".05" fill="#3a414a"/><path d="M749.5 1015h-20m0-10v20" stroke="#3a414a" fill="none"/><path d="M595.36 988.1a10 10 0 0 1 10.28 0l39.72 23.8a3.6 3.6 0 0 1 0 6.2l-39.72 23.8a10 10 0 0 1-10.28 0l-39.72-23.8a3.6 3.6 0 0 1 0-6.2z" stroke="#000" stroke-width="2" fill="#fff"/><use xlink:href="#j" transform="matrix(1,0,0,1,555.4999750000002,990) translate(37.01117283950617 30.27777777777778)"/><path d="M270.5 886a6 6 0 0 1 6-6h148a6 6 0 0 1 6 6v258a6 6 0 0 1-6 6h-148a6 6 0 0 1-6-6z" stroke="#000" stroke-width="2" fill="#fff"/><use xlink:href="#b" transform="matrix(1,0,0,1,282.4999750000002,892) translate(22.382716049382715 125.40277777777777)"/><path d="M750.5 961a6 6 0 0 1 6-6h148a6 6 0 0 1 6 6v108a6 6 0 0 1-6 6h-148a6 6 0 0 1-6-6z" stroke="#000" stroke-width="2" fill="#fff"/><use xlink:href="#k" transform="matrix(1,0,0,1,762.4999750000002,967) translate(42.135802469135804 53.77777777777778)"/><path d="M1054.36 988.1a10 10 0 0 1 10.3 0l39.7 23.8a3.6 3.6 0 0 1 0 6.2l-39.7 23.8a10 10 0 0 1-10.3 0l-39.7-23.8a3.6 3.6 0 0 1 0-6.2z" stroke="#000" stroke-width="2" fill="#fff"/><use xlink:href="#j" transform="matrix(1,0,0,1,1014.5000249999998,990) translate(37.01117283950617 30.27777777777778)"/><path d="M1209.5 961a6 6 0 0 1 6-6h148a6 6 0 0 1 6 6v108a6 6 0 0 1-6 6h-148a6 6 0 0 1-6-6z" stroke="#000" stroke-width="2" fill="#fff"/><use xlink:href="#l" transform="matrix(1,0,0,1,1221.5000249999998,967) translate(41.51851851851852 53.77777777777778)"/><path d="M940.83 1015h70.56" stroke="#000" fill="none"/><path d="M941 1015c0 8.28-6.72 15-15 15-8.28 0-15-6.72-15-15 0-8.28 6.72-15 15-15 8.28 0 15 6.72 15 15z" stroke="#000" fill="#fff"/><path d="M1011.9 1015l.04.48h-.56v-.96h.56z" stroke="#000" stroke-width=".05"/><path d="M1189.1 1015h-62M1208.28 1015h-20m20-10l-20 10m20 10l-20-10M1107.1 1015h20m0 10v-20" stroke="#000" fill="none"/><path d="M750.5 1271a6 6 0 0 1 6-6h148a6 6 0 0 1 6 6v108a6 6 0 0 1-6 6h-148a6 6 0 0 1-6-6z" stroke="#000" stroke-width="2" fill="#fff"/><use xlink:href="#m" transform="matrix(1,0,0,1,762.4999750000002,1277) translate(17.413580246913575 53.77777777777778)"/><path d="M830.5 1120.66v-44.16M830.5 1140.66v-20m10 0h-20" stroke="#000" fill="none"/><path d="M830.98 1076.5H830v-.5h.96z" stroke="#000" stroke-width=".05"/><path d="M830.5 1244v-44.16M830.5 1264v-20m10 0h-20" stroke="#000" fill="none"/><path d="M830.5 1199.34l.48-.03v.55H830v-.54z" stroke="#000" stroke-width=".05"/><path d="M825.36 1143.1a10 10 0 0 1 10.28 0l39.72 23.8a3.6 3.6 0 0 1 0 6.2l-39.72 23.8a10 10 0 0 1-10.28 0l-39.72-23.8a3.6 3.6 0 0 1 0-6.2z" stroke="#000" stroke-width="2" fill="#fff"/><use xlink:href="#j" transform="matrix(1,0,0,1,785.4999750000002,1145) translate(37.01117283950617 30.27777777777778)"/><path d="M720 77.5a6 6 0 0 1 6-6h188a6 6 0 0 1 6 6v165a6 6 0 0 1-6 6H726a6 6 0 0 1-6-6z" fill="#fff"/><path d="M720 77.5a6 6 0 0 1 6-6h188a6 6 0 0 1 6 6v165a6 6 0 0 1-6 6H726a6 6 0 0 1-6-6zM720 111.5h200" stroke="#000" stroke-width="2" fill="none"/><use xlink:href="#n" transform="matrix(1,0,0,1,730,71.49999999999966) translate(61.66666666666667 24.444444444444443)"/><use xlink:href="#o" transform="matrix(1,0,0,1,725,113.99999999999966) translate(0 20.444444444444443)"/><use xlink:href="#d" transform="matrix(1,0,0,1,725,113.99999999999966) translate(91.23456790123457 20.444444444444443)"/><use xlink:href="#p" transform="matrix(1,0,0,1,725,150.99999999999966) translate(0 20.444444444444443)"/><use xlink:href="#q" transform="matrix(1,0,0,1,725,150.99999999999966) translate(87.46913580246914 20.444444444444443)"/><use xlink:href="#r" transform="matrix(1,0,0,1,725,187.99999999999966) translate(0 20.111111111111114)"/><use xlink:href="#s" transform="matrix(1,0,0,1,725,187.99999999999966) translate(0 46.777777777777786)"/><path d="M720 406a6 6 0 0 1 6-6h188a6 6 0 0 1 6 6v147a6 6 0 0 1-6 6H726a6 6 0 0 1-6-6z" fill="#fff"/><path d="M720 406a6 6 0 0 1 6-6h188a6 6 0 0 1 6 6v147a6 6 0 0 1-6 6H726a6 6 0 0 1-6-6zM720 440h200" stroke="#000" stroke-width="2" fill="none"/><use xlink:href="#m" transform="matrix(1,0,0,1,730,400) translate(39.413580246913575 24.444444444444443)"/><use xlink:href="#r" transform="matrix(1,0,0,1,725,442.5) translate(0 20.111111111111114)"/><use xlink:href="#s" transform="matrix(1,0,0,1,725,442.5) translate(0 46.777777777777786)"/><path d="M1174.65 166.83h61.84a.1.1 0 0 1 .07.08.1.1 0 0 0 .1.1H1279" stroke="#000" fill="none"/><path d="M1174.66 167.3h-.56l.05-.47-.05-.48h.56z" stroke="#000" stroke-width=".05"/><path d="M1298.78 167h-20m20-10l-20 10m20 10l-20-10m0-10v20" stroke="#000" fill="none"/><path d="M1300 114.5a6 6 0 0 1 6-6h188a6 6 0 0 1 6 6v139a6 6 0 0 1-6 6h-188a6 6 0 0 1-6-6z" fill="#fff"/><path d="M1300 114.5a6 6 0 0 1 6-6h188a6 6 0 0 1 6 6v139a6 6 0 0 1-6 6h-188a6 6 0 0 1-6-6zM1300 148.5h200" stroke="#000" stroke-width="2" fill="none"/><use xlink:href="#t" transform="matrix(1,0,0,1,1310,108.50000112258982) translate(62.870370370370374 24.444444444444443)"/><use xlink:href="#p" transform="matrix(1,0,0,1,1305,151.00000112258982) translate(0 20.444444444444443)"/><use xlink:href="#q" transform="matrix(1,0,0,1,1305,151.00000112258982) translate(87.46913580246914 20.444444444444443)"/><use xlink:href="#u" transform="matrix(1,0,0,1,1305,188.00000112258982) translate(0 20.444444444444443)"/><use xlink:href="#v" transform="matrix(1,0,0,1,1305,225.00000112258982) translate(0 20.444444444444443)"/><path d="M1300-234a6 6 0 0 1 6-6h188a6 6 0 0 1 6 6v121a6 6 0 0 1-6 6h-188a6 6 0 0 1-6-6z" fill="#fff"/><path d="M1300-234a6 6 0 0 1 6-6h188a6 6 0 0 1 6 6v121a6 6 0 0 1-6 6h-188a6 6 0 0 1-6-6zM1300-200h200" stroke="#000" stroke-width="2" fill="none"/><use xlink:href="#w" transform="matrix(1,0,0,1,1310,-240) translate(65.98765432098766 24.444444444444443)"/><use xlink:href="#x" transform="matrix(1,0,0,1,1305,-197.5) translate(0 20.444444444444443)"/><use xlink:href="#q" transform="matrix(1,0,0,1,1305,-197.5) translate(108.39506172839506 20.444444444444443)"/><path d="M1400-86v46.16M1400-106v20m-10 0h20" stroke="#000" fill="none"/><path d="M1400.47-39.3l-.47-.04-.47.03v-.55h.94z" stroke="#000" stroke-width=".05"/><path d="M1400 39.34V88.1M1400 19.34v20m-10 0h20M1400 107.28v-20m10 20l-10-20m-10 20l10-20" stroke="#000" fill="none"/><path d="M1394.86-36.9a10 10 0 0 1 10.3 0l39.7 23.8a3.6 3.6 0 0 1 0 6.2l-39.7 23.8a10 10 0 0 1-10.3 0l-39.7-23.8a3.6 3.6 0 0 1-.02-6.2z" stroke="#000" stroke-width="2" fill="#fff"/><use xlink:href="#j" transform="matrix(1,0,0,1,1355,-35) translate(37.01117283950617 30.27777777777778)"/><path d="M671.5-172.5H771.9M651.72-172.5h20m-20 10l20-10m-20-10l20 10m0 10v-20" stroke="#000" fill="none"/><path d="M772.4-172.5l.04.47h-.56v-.94h.56z" stroke="#000" stroke-width=".05"/><path d="M450.5-225a6 6 0 0 1 6-6h188a6 6 0 0 1 6 6v176a6 6 0 0 1-6 6h-188a6 6 0 0 1-6-6z" fill="#fff"/><path d="M450.5-225a6 6 0 0 1 6-6h188a6 6 0 0 1 6 6v176a6 6 0 0 1-6 6h-188a6 6 0 0 1-6-6zM450.5-191h200" stroke="#000" stroke-width="2" fill="none"/><use xlink:href="#y" transform="matrix(1,0,0,1,460.4999750000002,-231) translate(47.43827160493827 24.444444444444443)"/><use xlink:href="#x" transform="matrix(1,0,0,1,455.4999750000002,-188.5) translate(0 20.444444444444443)"/><use xlink:href="#q" transform="matrix(1,0,0,1,455.4999750000002,-188.5) translate(108.39506172839506 20.444444444444443)"/><use xlink:href="#z" transform="matrix(1,0,0,1,455.4999750000002,-151.5) translate(0 20.444444444444443)"/><use xlink:href="#A" transform="matrix(1,0,0,1,455.4999750000002,-151.5) translate(91.29629629629629 20.444444444444443)"/><use xlink:href="#B" transform="matrix(1,0,0,1,455.4999750000002,-151.5) translate(139.44444444444443 20.444444444444443)"/><use xlink:href="#o" transform="matrix(1,0,0,1,455.4999750000002,-114.5) translate(0 20.444444444444443)"/><use xlink:href="#d" transform="matrix(1,0,0,1,455.4999750000002,-114.5) translate(91.23456790123457 20.444444444444443)"/><use xlink:href="#p" transform="matrix(1,0,0,1,455.4999750000002,-77.5) translate(0 20.444444444444443)"/><use xlink:href="#q" transform="matrix(1,0,0,1,455.4999750000002,-77.5) translate(87.46913580246914 20.444444444444443)"/><path d="M302.4-172.5h-54.94a6 6 0 0 0-6 6v180" stroke="#000" fill="none"/><path d="M302.9-172.5l.04.47h-.56v-.94h.56z" stroke="#000" stroke-width=".05"/><path d="M241.46 33.5v-20m10 0h-20M429.5-172.5h-30.9M449.28-172.5h-20m20-10l-20 10m20 10l-20-10m0-10v20" stroke="#000" fill="none"/><path d="M398.62-172.03h-.56l.05-.47-.04-.47h.56z" stroke="#000" stroke-width=".05"/><path d="M814.86-199.4a10 10 0 0 1 10.28 0l39.72 23.8a3.6 3.6 0 0 1 0 6.2l-39.72 23.8a10 10 0 0 1-10.28 0l-39.72-23.8a3.6 3.6 0 0 1 0-6.2z" stroke="#000" stroke-width="2" fill="#fff"/><use xlink:href="#j" transform="matrix(1,0,0,1,775,-197.49999999999994) translate(37.01117283950617 30.27777777777778)"/><path d="M345.36-199.4a10 10 0 0 1 10.28 0l39.72 23.8a3.6 3.6 0 0 1 0 6.2l-39.72 23.8a10 10 0 0 1-10.28 0l-39.72-23.8a3.6 3.6 0 0 1 0-6.2z" stroke="#000" stroke-width="2" fill="#fff"/><use xlink:href="#j" transform="matrix(1,0,0,1,305.4999750000002,-197.49999997941526) translate(37.01117283950617 30.27777777777778)"/><path d="M580 626a6 6 0 0 1 6-6h148a6 6 0 0 1 6 6v121.5a6 6 0 0 1-6 6H586a6 6 0 0 1-6-6z" stroke="#000" stroke-width="2" fill="#fff"/><use xlink:href="#y" transform="matrix(1,0,0,1,592,632) translate(25.438271604938272 59.02777777777778)"/><path d="M395.2 703.6a8 8 0 0 1 9.6 0l70.4 52.8a4.5 4.5 0 0 1 0 7.2l-70.4 52.8a8 8 0 0 1-9.6 0l-70.4-52.8a4.5 4.5 0 0 1 0-7.2z" stroke="#000" stroke-width="2" fill="#fff"/><use xlink:href="#j" transform="matrix(1,0,0,1,325,705) translate(67.01117283950617 59.02777777777778)"/><path d="M820 50.5v-86.36a.5.5 0 0 1 .5-.5.5.5 0 0 0 .5-.5v-105.86M820 70.5v-20m10 0h-20" stroke="#000" fill="none"/><path d="M821.48-142.7h-.96v-.5l.67-.03.27-.04z" stroke="#000" stroke-width=".05"/><path d="M478.5 760h44a6 6 0 0 0 6-6v-61.26a6 6 0 0 1 6-6H559" stroke="#000" fill="none"/><path d="M478.52 760.48h-.56l.04-.48-.04-.48h.56z" stroke="#000" stroke-width=".05"/><path d="M578.78 686.74h-20m20-10l-20 10m20 10l-20-10m0-10v20M400 819.5V843a6 6 0 0 1-6 6h-37.5a6 6 0 0 0-6 6v4" stroke="#000" fill="none"/><path d="M400 819l.48-.03v.54h-.96V819z" stroke="#000" stroke-width=".05"/><path d="M350.5 879v-20m10 0h-20" stroke="#000" fill="none"/><path d="M924.7 622.6a8 8 0 0 1 9.6 0l70.4 52.8a4.5 4.5 0 0 1 0 7.2l-70.4 52.8a8 8 0 0 1-9.6 0l-70.4-52.8a4.5 4.5 0 0 1 0-7.2z" stroke="#000" stroke-width="2" fill="#fff"/><use xlink:href="#j" transform="matrix(1,0,0,1,854.5000249999998,624) translate(67.01117283950617 59.02777777777778)"/><path d="M929.5 738.5V840a6 6 0 0 1-6 6h-87a6 6 0 0 0-6 6v82" stroke="#000" fill="none"/><path d="M929.5 738l.48-.03v.54H929V738z" stroke="#000" stroke-width=".05"/><path d="M830.5 954v-20m10 0h-20" stroke="#000" fill="none"/><path d="M1209.5 606a6 6 0 0 1 6-6h148a6 6 0 0 1 6 6v108a6 6 0 0 1-6 6h-148a6 6 0 0 1-6-6z" stroke="#000" stroke-width="2" fill="#fff"/><g><use xlink:href="#w" transform="matrix(1,0,0,1,1221.5000249999998,612) translate(43.98765432098766 53.77777777777778)"/></g><path d="M1284.7 763.6a8 8 0 0 1 9.6 0l70.4 52.8a4.5 4.5 0 0 1 0 7.2l-70.4 52.8a8 8 0 0 1-9.6 0l-70.4-52.8a4.5 4.5 0 0 1 0-7.2z" stroke="#000" stroke-width="2" fill="#fff"/><g><use xlink:href="#j" transform="matrix(1,0,0,1,1214.5000249999998,765) translate(67.01117283950617 59.02777777777778)"/></g><path d="M1289.5 879.5V934" stroke="#000" fill="none"/><path d="M1289.5 879l.47-.03v.54h-.94V879z" stroke="#000" stroke-width=".05"/><path d="M1289.5 953.78v-20m10 20l-10-20m-10 20l10-20m10 0h-20" stroke="#000" fill="none"/><path d="M820 1425a6 6 0 0 1 6-6h148a6 6 0 0 1 6 6v121.5a6 6 0 0 1-6 6H826a6 6 0 0 1-6-6z" stroke="#000" stroke-width="2" fill="#fff"/><g><use xlink:href="#C" transform="matrix(1,0,0,1,832,1431) translate(27.907407407407412 59.02777777777778)"/></g><path d="M851 679h-90" stroke="#000" fill="none"/><path d="M851.5 679l.04.48h-.56v-.96h.56z" stroke="#000" stroke-width=".05"/><path d="M741.22 679h20m-20 10l20-10m-20-10l20 10m0 10v-20M1289.5 760.5V741" stroke="#000" fill="none"/><path d="M1289.97 761.03l-.47-.03-.47.03v-.54h.94z" stroke="#000" stroke-width=".05"/><path d="M1289.5 721v20m-10 0h20" stroke="#000" fill="none"/><defs><path fill="#3a414a" d="M233-177c-1 41-23 64-60 70L243 0h-38l-65-103H63V0H30v-248c88 3 205-21 203 71zM63-129c60-2 137 13 137-47 0-61-80-42-137-45v92" id="D"/><use transform="matrix(0.06172839506172839,0,0,0.06172839506172839,0,0)" xlink:href="#D" id="a"/><path fill="#3a414a" d="M96-169c-40 0-48 33-48 73s9 75 48 75c24 0 41-14 43-38l32 2c-6 37-31 61-74 61-59 0-76-41-82-99-10-93 101-131 147-64 4 7 5 14 7 22l-32 3c-4-21-16-35-41-35" id="E"/><path fill="#3a414a" d="M84 4C-5 8 30-112 23-190h32v120c0 31 7 50 39 49 72-2 45-101 50-169h31l1 190h-30c-1-10 1-25-2-33-11 22-28 36-60 37" id="F"/><path fill="#3a414a" d="M135-143c-3-34-86-38-87 0 15 53 115 12 119 90S17 21 10-45l28-5c4 36 97 45 98 0-10-56-113-15-118-90-4-57 82-63 122-42 12 7 21 19 24 35" id="G"/><path fill="#3a414a" d="M59-47c-2 24 18 29 38 22v24C64 9 27 4 27-40v-127H5v-23h24l9-43h21v43h35v23H59v120" id="H"/><path fill="#3a414a" d="M100-194c62-1 85 37 85 99 1 63-27 99-86 99S16-35 15-95c0-66 28-99 85-99zM99-20c44 1 53-31 53-75 0-43-8-75-51-75s-53 32-53 75 10 74 51 75" id="I"/><path fill="#3a414a" d="M210-169c-67 3-38 105-44 169h-31v-121c0-29-5-50-35-48C34-165 62-65 56 0H25l-1-190h30c1 10-1 24 2 32 10-44 99-50 107 0 11-21 27-35 58-36 85-2 47 119 55 194h-31v-121c0-29-5-49-35-48" id="J"/><path fill="#3a414a" d="M100-194c63 0 86 42 84 106H49c0 40 14 67 53 68 26 1 43-12 49-29l28 8c-11 28-37 45-77 45C44 4 14-33 15-96c1-61 26-98 85-98zm52 81c6-60-76-77-97-28-3 7-6 17-6 28h103" id="K"/><path fill="#3a414a" d="M114-163C36-179 61-72 57 0H25l-1-190h30c1 12-1 29 2 39 6-27 23-49 58-41v29" id="L"/><g id="b"><use transform="matrix(0.06172839506172839,0,0,0.06172839506172839,0,0)" xlink:href="#E"/><use transform="matrix(0.06172839506172839,0,0,0.06172839506172839,11.11111111111111,0)" xlink:href="#F"/><use transform="matrix(0.06172839506172839,0,0,0.06172839506172839,23.45679012345679,0)" xlink:href="#G"/><use transform="matrix(0.06172839506172839,0,0,0.06172839506172839,34.5679012345679,0)" xlink:href="#H"/><use transform="matrix(0.06172839506172839,0,0,0.06172839506172839,40.74074074074074,0)" xlink:href="#I"/><use transform="matrix(0.06172839506172839,0,0,0.06172839506172839,53.08641975308642,0)" xlink:href="#J"/><use transform="matrix(0.06172839506172839,0,0,0.06172839506172839,71.5432098765432,0)" xlink:href="#K"/><use transform="matrix(0.06172839506172839,0,0,0.06172839506172839,83.88888888888889,0)" xlink:href="#L"/></g><path fill="#3a414a" d="M117-194c89-4 53 116 60 194h-32v-121c0-31-8-49-39-48C34-167 62-67 57 0H25l-1-190h30c1 10-1 24 2 32 11-22 29-35 61-36" id="M"/><path fill="#3a414a" d="M141-36C126-15 110 5 73 4 37 3 15-17 15-53c-1-64 63-63 125-63 3-35-9-54-41-54-24 1-41 7-42 31l-33-3c5-37 33-52 76-52 45 0 72 20 72 64v82c-1 20 7 32 28 27v20c-31 9-61-2-59-35zM48-53c0 20 12 33 32 33 41-3 63-29 60-74-43 2-92-5-92 41" id="N"/><path fill="#3a414a" d="M-5 72V49h209v23H-5" id="O"/><path fill="#3a414a" d="M24-231v-30h32v30H24zM24 0v-190h32V0H24" id="P"/><path fill="#3a414a" d="M85-194c31 0 48 13 60 33l-1-100h32l1 261h-30c-2-10 0-23-3-31C134-8 116 4 85 4 32 4 16-35 15-94c0-66 23-100 70-100zm9 24c-40 0-46 34-46 75 0 40 6 74 45 74 42 0 51-32 51-76 0-42-9-74-50-73" id="Q"/><g id="c"><use transform="matrix(0.06172839506172839,0,0,0.06172839506172839,0,0)" xlink:href="#M"/><use transform="matrix(0.06172839506172839,0,0,0.06172839506172839,12.345679012345679,0)" xlink:href="#N"/><use transform="matrix(0.06172839506172839,0,0,0.06172839506172839,24.691358024691358,0)" xlink:href="#J"/><use transform="matrix(0.06172839506172839,0,0,0.06172839506172839,43.148148148148145,0)" xlink:href="#K"/><use transform="matrix(0.06172839506172839,0,0,0.06172839506172839,55.49382716049382,0)" xlink:href="#O"/><use transform="matrix(0.06172839506172839,0,0,0.06172839506172839,67.8395061728395,0)" xlink:href="#P"/><use transform="matrix(0.06172839506172839,0,0,0.06172839506172839,72.71604938271605,0)" xlink:href="#Q"/></g><g id="d"><use transform="matrix(0.06172839506172839,0,0,0.06172839506172839,0,0)" xlink:href="#G"/><use transform="matrix(0.06172839506172839,0,0,0.06172839506172839,11.11111111111111,0)" xlink:href="#H"/><use transform="matrix(0.06172839506172839,0,0,0.06172839506172839,17.28395061728395,0)" xlink:href="#L"/></g><path fill="#3a414a" d="M141 0L90-78 38 0H4l68-98-65-92h35l48 74 47-74h35l-64 92 68 98h-35" id="R"/><g id="e"><use transform="matrix(0.06172839506172839,0,0,0.06172839506172839,0,0)" xlink:href="#K"/><use transform="matrix(0.06172839506172839,0,0,0.06172839506172839,12.345679012345679,0)" xlink:href="#R"/></g><path fill="#3a414a" d="M179-190L93 31C79 59 56 82 12 73V49c39 6 53-20 64-50L1-190h34L92-34l54-156h33" id="S"/><g id="f"><use transform="matrix(0.06172839506172839,0,0,0.06172839506172839,0,0)" xlink:href="#H"/><use transform="matrix(0.06172839506172839,0,0,0.06172839506172839,6.172839506172839,0)" xlink:href="#I"/><use transform="matrix(0.06172839506172839,0,0,0.06172839506172839,18.51851851851852,0)" xlink:href="#M"/><use transform="matrix(0.06172839506172839,0,0,0.06172839506172839,30.864197530864196,0)" xlink:href="#S"/></g><path d="M100-194c63 0 86 42 84 106H49c0 40 14 67 53 68 26 1 43-12 49-29l28 8c-11 28-37 45-77 45C44 4 14-33 15-96c1-61 26-98 85-98zm52 81c6-60-76-77-97-28-3 7-6 17-6 28h103" id="T"/><path d="M141 0L90-78 38 0H4l68-98-65-92h35l48 74 47-74h35l-64 92 68 98h-35" id="U"/><g id="g"><use transform="matrix(0.06296296296296296,0,0,0.06296296296296296,0,0)" xlink:href="#T"/><use transform="matrix(0.06296296296296296,0,0,0.06296296296296296,12.592592592592592,0)" xlink:href="#U"/></g><path d="M108 0H70L1-190h34L89-25l56-165h34" id="V"/><path d="M24-231v-30h32v30H24zM24 0v-190h32V0H24" id="W"/><path d="M143 0L79-87 56-68V0H24v-261h32v163l83-92h37l-77 82L181 0h-38" id="X"/><g id="h"><use transform="matrix(0.06296296296296296,0,0,0.06296296296296296,0,0)" xlink:href="#V"/><use transform="matrix(0.06296296296296296,0,0,0.06296296296296296,11.333333333333332,0)" xlink:href="#W"/><use transform="matrix(0.06296296296296296,0,0,0.06296296296296296,16.307407407407407,0)" xlink:href="#V"/><use transform="matrix(0.06296296296296296,0,0,0.06296296296296296,27.64074074074074,0)" xlink:href="#T"/><use transform="matrix(0.06296296296296296,0,0,0.06296296296296296,40.233333333333334,0)" xlink:href="#X"/></g><path d="M141-36C126-15 110 5 73 4 37 3 15-17 15-53c-1-64 63-63 125-63 3-35-9-54-41-54-24 1-41 7-42 31l-33-3c5-37 33-52 76-52 45 0 72 20 72 64v82c-1 20 7 32 28 27v20c-31 9-61-2-59-35zM48-53c0 20 12 33 32 33 41-3 63-29 60-74-43 2-92-5-92 41" id="Y"/><path d="M24 0v-261h32V0H24" id="Z"/><path d="M135-143c-3-34-86-38-87 0 15 53 115 12 119 90S17 21 10-45l28-5c4 36 97 45 98 0-10-56-113-15-118-90-4-57 82-63 122-42 12 7 21 19 24 35" id="aa"/><g id="i"><use transform="matrix(0.06296296296296296,0,0,0.06296296296296296,0,0)" xlink:href="#Y"/><use transform="matrix(0.06296296296296296,0,0,0.06296296296296296,12.592592592592592,0)" xlink:href="#Z"/><use transform="matrix(0.06296296296296296,0,0,0.06296296296296296,17.566666666666666,0)" xlink:href="#T"/><use transform="matrix(0.06296296296296296,0,0,0.06296296296296296,30.159259259259258,0)" xlink:href="#U"/><use transform="matrix(0.06296296296296296,0,0,0.06296296296296296,41.49259259259259,0)" xlink:href="#W"/><use transform="matrix(0.06296296296296296,0,0,0.06296296296296296,46.46666666666666,0)" xlink:href="#aa"/></g><use transform="matrix(0.06172839506172839,0,0,0.06172839506172839,0,0)" xlink:href="#D" id="j"/><g id="k"><use transform="matrix(0.06172839506172839,0,0,0.06172839506172839,0,0)" xlink:href="#I"/><use transform="matrix(0.06172839506172839,0,0,0.06172839506172839,12.345679012345679,0)" xlink:href="#L"/><use transform="matrix(0.06172839506172839,0,0,0.06172839506172839,19.691358024691358,0)" xlink:href="#Q"/><use transform="matrix(0.06172839506172839,0,0,0.06172839506172839,32.03703703703704,0)" xlink:href="#K"/><use transform="matrix(0.06172839506172839,0,0,0.06172839506172839,44.382716049382715,0)" xlink:href="#L"/></g><g id="l"><use transform="matrix(0.06172839506172839,0,0,0.06172839506172839,0,0)" xlink:href="#P"/><use transform="matrix(0.06172839506172839,0,0,0.06172839506172839,4.876543209876543,0)" xlink:href="#H"/><use transform="matrix(0.06172839506172839,0,0,0.06172839506172839,11.049382716049383,0)" xlink:href="#K"/><use transform="matrix(0.06172839506172839,0,0,0.06172839506172839,23.395061728395063,0)" xlink:href="#J"/><use transform="matrix(0.06172839506172839,0,0,0.06172839506172839,41.85185185185185,0)" xlink:href="#G"/></g><path fill="#3a414a" d="M115-194c55 1 70 41 70 98S169 2 115 4C84 4 66-9 55-30l1 105H24l-1-265h31l2 30c10-21 28-34 59-34zm-8 174c40 0 45-34 45-75s-6-73-45-74c-42 0-51 32-51 76 0 43 10 73 51 73" id="ab"/><path fill="#3a414a" d="M143 0L79-87 56-68V0H24v-261h32v163l83-92h37l-77 82L181 0h-38" id="ac"/><path fill="#3a414a" d="M177-190C167-65 218 103 67 71c-23-6-38-20-44-43l32-5c15 47 100 32 89-28v-30C133-14 115 1 83 1 29 1 15-40 15-95c0-56 16-97 71-98 29-1 48 16 59 35 1-10 0-23 2-32h30zM94-22c36 0 50-32 50-73 0-42-14-75-50-75-39 0-46 34-46 75s6 73 46 73" id="ad"/><g id="m"><use transform="matrix(0.06172839506172839,0,0,0.06172839506172839,0,0)" xlink:href="#ab"/><use transform="matrix(0.06172839506172839,0,0,0.06172839506172839,12.345679012345679,0)" xlink:href="#N"/><use transform="matrix(0.06172839506172839,0,0,0.06172839506172839,24.691358024691358,0)" xlink:href="#E"/><use transform="matrix(0.06172839506172839,0,0,0.06172839506172839,35.80246913580247,0)" xlink:href="#ac"/><use transform="matrix(0.06172839506172839,0,0,0.06172839506172839,46.91358024691358,0)" xlink:href="#N"/><use transform="matrix(0.06172839506172839,0,0,0.06172839506172839,59.25925925925926,0)" xlink:href="#ad"/><use transform="matrix(0.06172839506172839,0,0,0.06172839506172839,71.60493827160494,0)" xlink:href="#P"/><use transform="matrix(0.06172839506172839,0,0,0.06172839506172839,76.48148148148148,0)" xlink:href="#M"/><use transform="matrix(0.06172839506172839,0,0,0.06172839506172839,88.82716049382717,0)" xlink:href="#ad"/></g><path fill="#3a414a" d="M140-251c81 0 123 46 123 126C263-46 219 4 140 4 59 4 17-45 17-125s42-126 123-126zm0 227c63 0 89-41 89-101s-29-99-89-99c-61 0-89 39-89 99S79-25 140-24" id="ae"/><g id="n"><use transform="matrix(0.06172839506172839,0,0,0.06172839506172839,0,0)" xlink:href="#ae"/><use transform="matrix(0.06172839506172839,0,0,0.06172839506172839,17.28395061728395,0)" xlink:href="#L"/><use transform="matrix(0.06172839506172839,0,0,0.06172839506172839,24.629629629629626,0)" xlink:href="#Q"/><use transform="matrix(0.06172839506172839,0,0,0.06172839506172839,36.9753086419753,0)" xlink:href="#K"/><use transform="matrix(0.06172839506172839,0,0,0.06172839506172839,49.32098765432098,0)" xlink:href="#L"/></g><g id="o"><use transform="matrix(0.06172839506172839,0,0,0.06172839506172839,0,0)" xlink:href="#M"/><use transform="matrix(0.06172839506172839,0,0,0.06172839506172839,12.345679012345679,0)" xlink:href="#N"/><use transform="matrix(0.06172839506172839,0,0,0.06172839506172839,24.691358024691358,0)" xlink:href="#J"/><use transform="matrix(0.06172839506172839,0,0,0.06172839506172839,43.148148148148145,0)" xlink:href="#K"/><use transform="matrix(0.06172839506172839,0,0,0.06172839506172839,55.49382716049382,0)" xlink:href="#O"/><use transform="matrix(0.06172839506172839,0,0,0.06172839506172839,67.8395061728395,0)" xlink:href="#P"/><use transform="matrix(0.06172839506172839,0,0,0.06172839506172839,72.71604938271605,0)" xlink:href="#Q"/></g><g id="p"><use transform="matrix(0.06172839506172839,0,0,0.06172839506172839,0,0)" xlink:href="#I"/><use transform="matrix(0.06172839506172839,0,0,0.06172839506172839,12.345679012345679,0)" xlink:href="#L"/><use transform="matrix(0.06172839506172839,0,0,0.06172839506172839,19.691358024691358,0)" xlink:href="#Q"/><use transform="matrix(0.06172839506172839,0,0,0.06172839506172839,32.03703703703704,0)" xlink:href="#K"/><use transform="matrix(0.06172839506172839,0,0,0.06172839506172839,44.382716049382715,0)" xlink:href="#L"/><use transform="matrix(0.06172839506172839,0,0,0.06172839506172839,51.72839506172839,0)" xlink:href="#O"/><use transform="matrix(0.06172839506172839,0,0,0.06172839506172839,64.07407407407408,0)" xlink:href="#P"/><use transform="matrix(0.06172839506172839,0,0,0.06172839506172839,68.95061728395062,0)" xlink:href="#Q"/></g><g id="q"><use transform="matrix(0.06172839506172839,0,0,0.06172839506172839,0,0)" xlink:href="#P"/><use transform="matrix(0.06172839506172839,0,0,0.06172839506172839,4.876543209876543,0)" xlink:href="#M"/><use transform="matrix(0.06172839506172839,0,0,0.06172839506172839,17.22222222222222,0)" xlink:href="#H"/></g><g id="r"><use transform="matrix(0.06172839506172839,0,0,0.06172839506172839,0,0)" xlink:href="#ab"/><use transform="matrix(0.06172839506172839,0,0,0.06172839506172839,12.345679012345679,0)" xlink:href="#N"/><use transform="matrix(0.06172839506172839,0,0,0.06172839506172839,24.691358024691358,0)" xlink:href="#E"/><use transform="matrix(0.06172839506172839,0,0,0.06172839506172839,35.80246913580247,0)" xlink:href="#ac"/><use transform="matrix(0.06172839506172839,0,0,0.06172839506172839,46.91358024691358,0)" xlink:href="#N"/><use transform="matrix(0.06172839506172839,0,0,0.06172839506172839,59.25925925925926,0)" xlink:href="#ad"/><use transform="matrix(0.06172839506172839,0,0,0.06172839506172839,71.60493827160494,0)" xlink:href="#P"/><use transform="matrix(0.06172839506172839,0,0,0.06172839506172839,76.48148148148148,0)" xlink:href="#M"/><use transform="matrix(0.06172839506172839,0,0,0.06172839506172839,88.82716049382717,0)" xlink:href="#ad"/><use transform="matrix(0.06172839506172839,0,0,0.06172839506172839,101.17283950617285,0)" xlink:href="#O"/><use transform="matrix(0.06172839506172839,0,0,0.06172839506172839,113.51851851851853,0)" xlink:href="#P"/><use transform="matrix(0.06172839506172839,0,0,0.06172839506172839,118.39506172839508,0)" xlink:href="#Q"/></g><path fill="#3a414a" d="M115-194c53 0 69 39 70 98 0 66-23 100-70 100C84 3 66-7 56-30L54 0H23l1-261h32v101c10-23 28-34 59-34zm-8 174c40 0 45-34 45-75 0-40-5-75-45-74-42 0-51 32-51 76 0 43 10 73 51 73" id="af"/><path fill="#3a414a" d="M24 0v-261h32V0H24" id="ag"/><g id="s"><use transform="matrix(0.06172839506172839,0,0,0.06172839506172839,0,0)" xlink:href="#af"/><use transform="matrix(0.06172839506172839,0,0,0.06172839506172839,12.345679012345679,0)" xlink:href="#I"/><use transform="matrix(0.06172839506172839,0,0,0.06172839506172839,24.691358024691358,0)" xlink:href="#I"/><use transform="matrix(0.06172839506172839,0,0,0.06172839506172839,37.03703703703704,0)" xlink:href="#ag"/><use transform="matrix(0.06172839506172839,0,0,0.06172839506172839,41.91358024691358,0)" xlink:href="#K"/><use transform="matrix(0.06172839506172839,0,0,0.06172839506172839,54.25925925925926,0)" xlink:href="#N"/><use transform="matrix(0.06172839506172839,0,0,0.06172839506172839,66.60493827160494,0)" xlink:href="#M"/></g><path fill="#3a414a" d="M33 0v-248h34V0H33" id="ah"/><g id="t"><use transform="matrix(0.06172839506172839,0,0,0.06172839506172839,0,0)" xlink:href="#ah"/><use transform="matrix(0.06172839506172839,0,0,0.06172839506172839,6.172839506172839,0)" xlink:href="#H"/><use transform="matrix(0.06172839506172839,0,0,0.06172839506172839,12.345679012345679,0)" xlink:href="#K"/><use transform="matrix(0.06172839506172839,0,0,0.06172839506172839,24.691358024691358,0)" xlink:href="#J"/><use transform="matrix(0.06172839506172839,0,0,0.06172839506172839,43.148148148148145,0)" xlink:href="#G"/></g><g id="u"><use transform="matrix(0.06172839506172839,0,0,0.06172839506172839,0,0)" xlink:href="#P"/><use transform="matrix(0.06172839506172839,0,0,0.06172839506172839,4.876543209876543,0)" xlink:href="#H"/><use transform="matrix(0.06172839506172839,0,0,0.06172839506172839,11.049382716049383,0)" xlink:href="#K"/><use transform="matrix(0.06172839506172839,0,0,0.06172839506172839,23.395061728395063,0)" xlink:href="#J"/><use transform="matrix(0.06172839506172839,0,0,0.06172839506172839,41.85185185185185,0)" xlink:href="#O"/><use transform="matrix(0.06172839506172839,0,0,0.06172839506172839,54.197530864197525,0)" xlink:href="#ab"/><use transform="matrix(0.06172839506172839,0,0,0.06172839506172839,66.5432098765432,0)" xlink:href="#L"/><use transform="matrix(0.06172839506172839,0,0,0.06172839506172839,73.88888888888889,0)" xlink:href="#P"/><use transform="matrix(0.06172839506172839,0,0,0.06172839506172839,78.76543209876543,0)" xlink:href="#E"/><use transform="matrix(0.06172839506172839,0,0,0.06172839506172839,89.87654320987654,0)" xlink:href="#K"/></g><g id="v"><use transform="matrix(0.06172839506172839,0,0,0.06172839506172839,0,0)" xlink:href="#P"/><use transform="matrix(0.06172839506172839,0,0,0.06172839506172839,4.876543209876543,0)" xlink:href="#H"/><use transform="matrix(0.06172839506172839,0,0,0.06172839506172839,11.049382716049383,0)" xlink:href="#K"/><use transform="matrix(0.06172839506172839,0,0,0.06172839506172839,23.395061728395063,0)" xlink:href="#J"/><use transform="matrix(0.06172839506172839,0,0,0.06172839506172839,41.85185185185185,0)" xlink:href="#O"/><use transform="matrix(0.06172839506172839,0,0,0.06172839506172839,54.197530864197525,0)" xlink:href="#M"/><use transform="matrix(0.06172839506172839,0,0,0.06172839506172839,66.5432098765432,0)" xlink:href="#N"/><use transform="matrix(0.06172839506172839,0,0,0.06172839506172839,78.88888888888889,0)" xlink:href="#J"/><use transform="matrix(0.06172839506172839,0,0,0.06172839506172839,97.34567901234567,0)" xlink:href="#K"/></g><g id="w"><use transform="matrix(0.06172839506172839,0,0,0.06172839506172839,0,0)" xlink:href="#ab"/><use transform="matrix(0.06172839506172839,0,0,0.06172839506172839,12.345679012345679,0)" xlink:href="#L"/><use transform="matrix(0.06172839506172839,0,0,0.06172839506172839,19.691358024691358,0)" xlink:href="#P"/><use transform="matrix(0.06172839506172839,0,0,0.06172839506172839,24.5679012345679,0)" xlink:href="#E"/><use transform="matrix(0.06172839506172839,0,0,0.06172839506172839,35.67901234567901,0)" xlink:href="#K"/></g><g id="x"><use transform="matrix(0.06172839506172839,0,0,0.06172839506172839,0,0)" xlink:href="#P"/><use transform="matrix(0.06172839506172839,0,0,0.06172839506172839,4.876543209876543,0)" xlink:href="#H"/><use transform="matrix(0.06172839506172839,0,0,0.06172839506172839,11.049382716049383,0)" xlink:href="#K"/><use transform="matrix(0.06172839506172839,0,0,0.06172839506172839,23.395061728395063,0)" xlink:href="#J"/><use transform="matrix(0.06172839506172839,0,0,0.06172839506172839,41.85185185185185,0)" xlink:href="#O"/><use transform="matrix(0.06172839506172839,0,0,0.06172839506172839,54.197530864197525,0)" xlink:href="#ab"/><use transform="matrix(0.06172839506172839,0,0,0.06172839506172839,66.5432098765432,0)" xlink:href="#L"/><use transform="matrix(0.06172839506172839,0,0,0.06172839506172839,73.88888888888889,0)" xlink:href="#P"/><use transform="matrix(0.06172839506172839,0,0,0.06172839506172839,78.76543209876543,0)" xlink:href="#E"/><use transform="matrix(0.06172839506172839,0,0,0.06172839506172839,89.87654320987654,0)" xlink:href="#K"/></g><g id="y"><use transform="matrix(0.06172839506172839,0,0,0.06172839506172839,0,0)" xlink:href="#ab"/><use transform="matrix(0.06172839506172839,0,0,0.06172839506172839,12.345679012345679,0)" xlink:href="#N"/><use transform="matrix(0.06172839506172839,0,0,0.06172839506172839,24.691358024691358,0)" xlink:href="#S"/><use transform="matrix(0.06172839506172839,0,0,0.06172839506172839,35.80246913580247,0)" xlink:href="#J"/><use transform="matrix(0.06172839506172839,0,0,0.06172839506172839,54.25925925925925,0)" xlink:href="#K"/><use transform="matrix(0.06172839506172839,0,0,0.06172839506172839,66.60493827160494,0)" xlink:href="#M"/><use transform="matrix(0.06172839506172839,0,0,0.06172839506172839,78.95061728395062,0)" xlink:href="#H"/></g><g id="z"><use transform="matrix(0.06172839506172839,0,0,0.06172839506172839,0,0)" xlink:href="#ab"/><use transform="matrix(0.06172839506172839,0,0,0.06172839506172839,12.345679012345679,0)" xlink:href="#N"/><use transform="matrix(0.06172839506172839,0,0,0.06172839506172839,24.691358024691358,0)" xlink:href="#S"/><use transform="matrix(0.06172839506172839,0,0,0.06172839506172839,35.80246913580247,0)" xlink:href="#J"/><use transform="matrix(0.06172839506172839,0,0,0.06172839506172839,54.25925925925925,0)" xlink:href="#K"/><use transform="matrix(0.06172839506172839,0,0,0.06172839506172839,66.60493827160494,0)" xlink:href="#M"/><use transform="matrix(0.06172839506172839,0,0,0.06172839506172839,78.95061728395062,0)" xlink:href="#H"/></g><g id="A"><use transform="matrix(0.06172839506172839,0,0,0.06172839506172839,0,0)" xlink:href="#H"/><use transform="matrix(0.06172839506172839,0,0,0.06172839506172839,6.172839506172839,0)" xlink:href="#S"/><use transform="matrix(0.06172839506172839,0,0,0.06172839506172839,17.28395061728395,0)" xlink:href="#ab"/><use transform="matrix(0.06172839506172839,0,0,0.06172839506172839,29.629629629629626,0)" xlink:href="#K"/></g><g id="B"><use transform="matrix(0.06172839506172839,0,0,0.06172839506172839,0,0)" xlink:href="#af"/><use transform="matrix(0.06172839506172839,0,0,0.06172839506172839,12.345679012345679,0)" xlink:href="#I"/><use transform="matrix(0.06172839506172839,0,0,0.06172839506172839,24.691358024691358,0)" xlink:href="#I"/><use transform="matrix(0.06172839506172839,0,0,0.06172839506172839,37.03703703703704,0)" xlink:href="#ag"/></g><path fill="#3a414a" d="M30-248c87 1 191-15 191 75 0 78-77 80-158 76V0H30v-248zm33 125c57 0 124 11 124-50 0-59-68-47-124-48v98" id="ai"/><g id="C"><use transform="matrix(0.06172839506172839,0,0,0.06172839506172839,0,0)" xlink:href="#ai"/><use transform="matrix(0.06172839506172839,0,0,0.06172839506172839,14.814814814814813,0)" xlink:href="#L"/><use transform="matrix(0.06172839506172839,0,0,0.06172839506172839,22.160493827160494,0)" xlink:href="#I"/><use transform="matrix(0.06172839506172839,0,0,0.06172839506172839,34.50617283950617,0)" xlink:href="#E"/><use transform="matrix(0.06172839506172839,0,0,0.06172839506172839,45.61728395061728,0)" xlink:href="#K"/><use transform="matrix(0.06172839506172839,0,0,0.06172839506172839,57.962962962962955,0)" xlink:href="#G"/><use transform="matrix(0.06172839506172839,0,0,0.06172839506172839,69.07407407407406,0)" xlink:href="#G"/></g></defs></g></svg>